<svg width="15" height="13" viewBox="0 0 15 13" fill="none" xmlns="http://www.w3.org/2000/svg">
<path fill-rule="evenodd" clip-rule="evenodd" d="M0.199708 11.1087C-0.0665693 11.375 -0.0665693 11.8068 0.199708 12.0731C0.465972 12.3393 0.897671 12.3393 1.16393 12.0731L6.61848 6.61848C6.88476 6.35222 6.88476 5.92052 6.61848 5.65425L1.16393 0.199708C0.897671 -0.0665693 0.465972 -0.0665693 0.199708 0.199708C-0.0665693 0.465972 -0.0665693 0.897671 0.199708 1.16393L5.17213 6.13637L0.199708 11.1087ZM8.38153 11.1087C8.11525 11.375 8.11525 11.8068 8.38153 12.0731C8.64779 12.3393 9.07949 12.3393 9.34575 12.0731L14.8004 6.61848C15.0665 6.35222 15.0665 5.92052 14.8004 5.65425L9.34575 0.199708C9.07949 -0.0665693 8.64779 -0.0665693 8.38153 0.199708C8.11525 0.465972 8.11525 0.897671 8.38153 1.16393L13.354 6.13637L8.38153 11.1087Z" fill="#068212"/>
</svg>
