<svg width="30" height="25" viewBox="0 0 30 25" fill="none" xmlns="http://www.w3.org/2000/svg">
<path d="M29.9428 2.90531C28.8394 3.38906 27.6581 3.72188 26.4131 3.87281C27.6834 3.11063 28.6547 1.905 29.1178 0.46875C27.9263 1.1625 26.6081 1.665 25.2066 1.94906C24.0891 0.752813 22.4916 0 20.7188 0C17.3203 0 14.5659 2.75344 14.5659 6.14719C14.5659 6.63563 14.625 7.10438 14.7272 7.54875C9.615 7.30969 5.08313 4.85344 2.05219 1.14281C1.51969 2.04656 1.21687 3.09656 1.21687 4.23938C1.21687 6.37781 2.30531 8.25281 3.95062 9.35531C2.94469 9.32625 1.99781 9.04781 1.16812 8.58938V8.66344C1.16812 11.6456 3.28688 14.1319 6.09938 14.6981C5.58656 14.8341 5.03906 14.9128 4.48313 14.9128C4.08844 14.9128 3.71156 14.8744 3.33563 14.805C4.12687 17.2463 6.39187 19.0238 9.09188 19.0772C6.99281 20.7225 4.33219 21.7031 1.46531 21.7031C0.976875 21.7031 0.489375 21.6797 0 21.6206C2.73469 23.3644 5.9625 24.3844 9.44906 24.3844C20.7619 24.3844 26.9438 15.0141 26.9438 6.89906C26.9438 6.64031 26.9438 6.37688 26.9241 6.1125C28.1306 5.25281 29.175 4.16344 30 2.92875L29.9428 2.90531Z" fill="white"/>
</svg>
